<svg width="24" height="18" viewBox="0 0 24 18" fill="none" xmlns="http://www.w3.org/2000/svg">
<path fill-rule="evenodd" clip-rule="evenodd" d="M2.57448 9.70747C2.39499 9.42955 2.2501 9.18887 2.14081 9C2.2501 8.81113 2.39499 8.57045 2.57448 8.29253C3.0355 7.57869 3.71823 6.6294 4.60461 5.68394C6.39559 3.77356 8.89958 2 12.0001 2C15.1006 2 17.6045 3.77356 19.3955 5.68394C20.2819 6.6294 20.9646 7.57869 21.4257 8.29253C21.6051 8.57045 21.75 8.81113 21.8593 9C21.75 9.18887 21.6051 9.42955 21.4257 9.70747C20.9646 10.4213 20.2819 11.3706 19.3955 12.3161C17.6045 14.2264 15.1006 16 12.0001 16C8.89958 16 6.39559 14.2264 4.60461 12.3161C3.71823 11.3706 3.0355 10.4213 2.57448 9.70747ZM23.8941 8.55208C23.8941 8.55208 24.0464 9.14263 23.8941 9.44792L23.8925 9.45113L23.8891 9.45796L23.8777 9.48018C23.8682 9.49873 23.8547 9.52469 23.8373 9.55756C23.8025 9.6233 23.752 9.71677 23.6861 9.83401C23.5543 10.0684 23.3602 10.3985 23.1057 10.7925C22.598 11.5787 21.8432 12.6294 20.8546 13.6839C18.8956 15.7736 15.8996 18 12.0001 18C8.10056 18 5.10455 15.7736 3.14553 13.6839C2.1569 12.6294 1.40213 11.5787 0.894404 10.7925C0.639918 10.3985 0.44586 10.0684 0.31404 9.83401C0.248092 9.71677 0.197608 9.6233 0.162822 9.55756C0.145425 9.52469 0.131943 9.49873 0.122406 9.48018L0.111058 9.45796L0.107607 9.45113L0.106438 9.4488L0.105993 8.55208L0.107607 8.54887L0.111058 8.54204L0.122406 8.51982C0.131943 8.50127 0.145425 8.47531 0.162822 8.44244C0.197608 8.3767 0.248092 8.28323 0.31404 8.16599C0.44586 7.93164 0.639918 7.60152 0.894404 7.20747C1.40213 6.42131 2.1569 5.3706 3.14553 4.31606C5.10455 2.22644 8.10056 0 12.0001 0C15.8996 0 18.8956 2.22644 20.8546 4.31606C21.8432 5.3706 22.598 6.42131 23.1057 7.20747C23.3602 7.60152 23.5543 7.93164 23.6861 8.16599C23.752 8.28323 23.8025 8.3767 23.8373 8.44244C23.8547 8.47531 23.8682 8.50127 23.8777 8.51982L23.8891 8.54204L23.8925 8.54887L23.8941 8.55208ZM23.8941 9.44792C24.0349 9.16639 24.0349 8.83361 23.8941 8.55208C23.8941 8.55208 24.0464 9.14263 23.8941 9.44792ZM0.105641 9.44721L0.105817 8.99965L0.105993 8.55208C-0.0347706 8.83361 -0.0351227 9.16569 0.105641 9.44721ZM12.0001 5C10.9392 5 9.92179 5.42143 9.17164 6.17157C8.4215 6.92172 8.00007 7.93913 8.00007 9C8.00007 10.0609 8.4215 11.0783 9.17164 11.8284C9.92179 12.5786 10.9392 13 12.0001 13C13.0609 13 14.0784 12.5786 14.8285 11.8284C15.5786 11.0783 16.0001 10.0609 16.0001 9C16.0001 7.93913 15.5786 6.92172 14.8285 6.17157C14.0784 5.42143 13.0609 5 12.0001 5ZM13.4143 10.4142C13.0392 10.7893 12.5305 11 12.0001 11C11.4696 11 10.9609 10.7893 10.5859 10.4142C10.2108 10.0391 10.0001 9.53043 10.0001 9C10.0001 8.46957 10.2108 7.96086 10.5859 7.58579C10.9609 7.21071 11.4696 7 12.0001 7C12.5305 7 13.0392 7.21071 13.4143 7.58579C13.7894 7.96086 14.0001 8.46957 14.0001 9C14.0001 9.53043 13.7894 10.0391 13.4143 10.4142Z" fill="white"/>
</svg>
