<svg width="12" height="13" viewBox="0 0 12 13" fill="none" xmlns="http://www.w3.org/2000/svg">
<path d="M2.43174 1.0108C2.02331 1.07455 1.55112 1.26814 1.20643 1.51132C1.12144 1.5727 0.95381 1.71908 0.838125 1.83476C0.500514 2.17473 0.273866 2.54776 0.12985 3.00578C0 3.42366 0 3.41185 0 6.49993C0 9.61398 0 9.58093 0.139294 10.0201C0.285671 10.471 0.512319 10.8393 0.861735 11.1864C1.29614 11.6208 1.8486 11.8994 2.45535 11.9914C2.79296 12.041 8.26321 12.041 8.60082 11.9891C9.84266 11.8026 10.8272 10.8157 11.0137 9.57149C11.0656 9.23624 11.0656 3.76363 11.0137 3.42838C10.8272 2.18418 9.84266 1.19731 8.60082 1.0108C8.27737 0.961223 2.74575 0.961223 2.43174 1.0108ZM8.77081 1.52548C9.62074 1.75685 10.2653 2.40374 10.5014 3.25367L10.5651 3.48976V6.49993V9.5101L10.5014 9.74619C10.2653 10.5961 9.62074 11.2407 8.77081 11.4767L8.53471 11.5405H5.53635H2.53799L2.33022 11.4886C1.80374 11.354 1.34572 11.0707 1.027 10.6788C0.760215 10.3529 0.580786 9.96104 0.509958 9.54788C0.476905 9.35192 0.472183 8.99306 0.472183 6.49993C0.472183 4.0068 0.476905 3.64795 0.509958 3.45199C0.682305 2.44624 1.46141 1.66241 2.46716 1.48535C2.62534 1.45702 3.14474 1.45229 5.59537 1.45465L8.53471 1.45938L8.77081 1.52548Z" fill="#343434"/>
<path d="M8.48281 2.52888C8.11215 2.66109 7.91383 2.96092 7.93744 3.34575C7.95633 3.63851 8.13103 3.89112 8.40254 4.01625C8.51114 4.06819 8.57016 4.07764 8.72362 4.07764C8.96444 4.07764 9.14387 4.00209 9.30677 3.82974C9.66563 3.44727 9.54994 2.80274 9.07776 2.57137C8.89833 2.48402 8.65752 2.46513 8.48281 2.52888ZM8.9125 3.01522C9.11317 3.14744 9.08012 3.48269 8.85583 3.58421C8.72362 3.64323 8.60794 3.61726 8.49461 3.50157C8.41434 3.42366 8.4049 3.40005 8.4049 3.29853C8.4049 3.15688 8.46392 3.053 8.57252 2.9987C8.66696 2.94912 8.82514 2.95856 8.9125 3.01522Z" fill="#343434"/>
<path d="M5.07598 3.79644C3.7515 4.02309 2.78589 5.15397 2.78589 6.48552C2.78589 7.56682 3.37848 8.50883 4.35118 8.96685C5.56705 9.54291 7.00957 9.15336 7.77451 8.04137C7.91852 7.83361 8.08851 7.45822 8.15461 7.20796C8.48514 5.96612 7.92324 4.67942 6.79 4.07739C6.28477 3.80824 5.63079 3.702 5.07598 3.79644ZM6.07465 4.30168C6.7357 4.47638 7.30232 4.95329 7.58327 5.57421C7.82645 6.11014 7.83825 6.78536 7.61396 7.34254C7.34482 8.01304 6.77584 8.50411 6.04868 8.70006C5.78189 8.77089 5.28374 8.77089 4.99807 8.70006C4.26382 8.51827 3.66887 7.99651 3.40209 7.3024C3.23682 6.87744 3.21321 6.30609 3.3407 5.87641C3.57916 5.06425 4.22841 4.45986 5.05473 4.28279C5.3404 4.21904 5.79606 4.22849 6.07465 4.30168Z" fill="#343434"/>
</svg>
