<svg width="19" height="22" viewBox="0 0 19 22" fill="none" xmlns="http://www.w3.org/2000/svg">
<path d="M10.9199 0.490602C11.1291 0.640293 11.2052 0.917498 11.1149 1.17807C10.9674 1.57725 11.2908 1.54952 6.63447 1.54952C3.08156 1.54952 2.40617 1.56061 2.17311 1.63269C1.68322 1.78238 1.37882 2.0873 1.14576 2.65834L1.0221 2.96327V11.0299V19.0966L1.14576 19.4015C1.32175 19.845 1.53102 20.0945 1.8925 20.2996L2.21116 20.4826L6.5441 20.5103C10.6963 20.538 10.8866 20.5436 10.9817 20.6434C11.1386 20.8097 11.1957 21.0758 11.1101 21.3031C10.9722 21.6968 11.2243 21.6746 6.50605 21.6746C1.82591 21.6746 1.9353 21.6801 1.3598 21.3308C0.988809 21.1035 0.489403 20.5214 0.294396 20.089C-0.0147591 19.4015 -0.000490189 19.8561 -0.000490189 11.0299C-0.000490189 2.20373 -0.0147591 2.65834 0.294396 1.97088C0.489403 1.53844 0.988809 0.956306 1.3598 0.729C1.9353 0.379721 1.82591 0.385265 6.51557 0.385265C10.6297 0.385265 10.7772 0.39081 10.9199 0.490602Z" fill="white"/>
<path d="M13.9162 5.18624C14.1065 5.29712 18.1968 10.0761 18.2396 10.2425C18.33 10.5917 18.3062 10.6194 16.0613 13.2363C13.9257 15.7256 13.9067 15.7422 13.7165 15.7422C13.3645 15.7422 13.1077 15.3486 13.2218 14.9882C13.2503 14.8995 13.9971 13.9847 14.9008 12.9258L16.5274 11.0297H10.9911C5.91621 11.0297 5.4501 11.0242 5.32644 10.9355C5.05058 10.747 5.00301 10.2923 5.22656 10.0262L5.36449 9.86545H10.9436H16.5226L14.877 7.93611C13.6023 6.45029 13.2266 5.9735 13.198 5.8349C13.1552 5.59096 13.2836 5.29712 13.4834 5.18624C13.6784 5.07536 13.7307 5.07536 13.9162 5.18624Z" fill="white"/>
</svg>
