<svg width="12" height="11" viewBox="0 0 12 11" fill="none" xmlns="http://www.w3.org/2000/svg">
<path d="M5.45305 0.0213785C4.39172 0.124503 3.41204 0.515519 2.55266 1.17724C2.13372 1.4995 1.59016 2.10536 1.27649 2.5995C1.14114 2.8122 0.87688 3.3536 0.782349 3.61142C0.344068 4.80595 0.344068 6.19814 0.780201 7.38192C0.859693 7.59892 1.10247 8.11024 1.21633 8.3036L1.27864 8.41103L0.971412 9.52606C0.801685 10.1405 0.662037 10.669 0.662037 10.7013C0.662037 10.785 0.743677 10.871 0.833912 10.8839C0.891919 10.8925 1.16907 10.8151 1.99192 10.5595C2.58704 10.3768 3.08547 10.2265 3.10051 10.2265C3.11555 10.2265 3.25735 10.2931 3.41419 10.3747C4.78489 11.0858 6.39837 11.1911 7.83567 10.6647C8.09348 10.5702 8.63489 10.3059 8.84758 10.1706C9.53723 9.73232 10.1796 9.08993 10.6179 8.40028C10.7532 8.18759 11.0175 7.64618 11.112 7.38837C11.2173 7.10048 11.3312 6.6579 11.387 6.3163C11.4257 6.07353 11.4322 5.93817 11.4322 5.49989C11.4322 4.90263 11.3999 4.62118 11.2646 4.10556C11.1615 3.71884 11.0669 3.46747 10.8779 3.0829C10.5943 2.50497 10.2999 2.09462 9.82727 1.61982C9.35247 1.14716 8.94211 0.852823 8.36419 0.56923C7.83567 0.309269 7.34583 0.154581 6.77434 0.0643473C6.45852 0.0149326 5.75383 -0.00869942 5.45305 0.0213785ZM6.77434 0.491886C7.87434 0.680948 8.81106 1.17724 9.58879 1.9786C10.33 2.74345 10.7919 3.66513 10.9681 4.7372C11.024 5.07235 11.024 5.92743 10.9681 6.26259C10.7919 7.33466 10.33 8.25634 9.58879 9.02118C8.81106 9.82255 7.87004 10.321 6.77434 10.5079C6.44133 10.5659 5.78391 10.5852 5.44876 10.5509C4.6968 10.4692 4.03508 10.2544 3.36692 9.86981C3.27669 9.81825 3.18001 9.77528 3.15208 9.77528C3.12415 9.77528 2.67297 9.90634 2.14876 10.0675C1.62669 10.2286 1.1927 10.3575 1.1884 10.3532C1.18411 10.3489 1.30227 9.91493 1.44836 9.38857C1.63313 8.72685 1.71477 8.40888 1.70833 8.35732C1.70188 8.31649 1.65461 8.20907 1.59876 8.11884C1.24426 7.53232 0.995044 6.80185 0.906959 6.07997C0.859693 5.69755 0.874732 5.04442 0.939185 4.67275C1.11751 3.63075 1.57512 2.73271 2.30559 1.9786C3.16926 1.08915 4.18333 0.597159 5.47454 0.442472C5.51536 0.438175 5.76672 0.436027 6.03313 0.440324C6.40266 0.44462 6.57669 0.457511 6.77434 0.491886Z" fill="#343434"/>
<path d="M3.61603 2.08397C3.35392 2.1119 3.29806 2.13553 3.18634 2.26014C2.69864 2.80369 2.39786 3.57713 2.43009 4.21092C2.44943 4.58905 2.52462 4.85116 2.73732 5.30877C3.30236 6.51405 4.21974 7.56033 5.25958 8.17908C5.88048 8.54862 6.47989 8.74627 7.18458 8.81072C8.48868 8.92889 9.30079 8.40897 9.59083 7.266C9.64669 7.04686 9.65529 6.93729 9.62091 6.87498C9.60802 6.8535 9.46622 6.75467 9.30294 6.65799C9.14181 6.55916 8.83673 6.3701 8.62404 6.23475C8.41349 6.0994 8.19005 5.96619 8.12989 5.93826C7.99669 5.87596 7.80548 5.86951 7.69376 5.92323C7.61642 5.95975 7.59923 5.97908 7.38439 6.26912C7.24259 6.46033 6.91388 6.81912 6.84298 6.85565C6.79357 6.88358 6.73126 6.85994 6.49493 6.72674C5.98146 6.43885 5.27892 5.88026 4.93302 5.48924C4.67521 5.1949 4.48615 4.88768 4.48615 4.75662C4.48615 4.73944 4.55919 4.64061 4.64728 4.53748C4.93087 4.20877 5.034 3.93807 4.96954 3.68885C4.8922 3.38807 4.37872 2.39334 4.19825 2.19354C4.10372 2.08826 3.91466 2.05389 3.61603 2.08397ZM4.01349 2.66834C4.0715 2.76502 4.21974 3.04217 4.34005 3.28065C4.60001 3.79842 4.60861 3.84569 4.48615 4.04764C4.44532 4.11639 4.33146 4.25819 4.23693 4.36346C4.04786 4.56756 4.02853 4.61268 4.05646 4.78026C4.15743 5.37967 4.88361 6.19178 5.92345 6.87069C6.40685 7.18865 6.71622 7.32186 6.87521 7.28533C7.08575 7.23592 7.39943 6.95877 7.70021 6.55487L7.89142 6.2992L7.96232 6.32713C8.00099 6.34432 8.20294 6.46678 8.41349 6.60213C8.62189 6.73533 8.88185 6.89647 8.98712 6.96092C9.09454 7.02322 9.18478 7.07908 9.19122 7.08338C9.22989 7.11776 9.0172 7.68065 8.91193 7.816C8.77443 7.99432 8.61974 8.12322 8.43068 8.21561C8.17501 8.34237 8.00099 8.38104 7.62931 8.39393C6.54435 8.43475 5.51525 8.01365 4.57853 7.14139C3.93829 6.54627 3.28732 5.59881 2.99083 4.82967C2.77599 4.27537 2.81251 3.73612 3.10685 3.141C3.19493 2.96268 3.42482 2.61248 3.49357 2.55018C3.53224 2.5158 3.60743 2.50076 3.7922 2.49647L3.90392 2.49217L4.01349 2.66834Z" fill="#343434"/>
</svg>
