<svg width="19" height="19" viewBox="0 0 19 19" fill="none" xmlns="http://www.w3.org/2000/svg">
<path opacity="0.963" fill-rule="evenodd" clip-rule="evenodd" d="M7.03395 0.100371C10.2599 -0.105318 12.7746 1.11539 14.5779 3.76248C15.8701 6.00584 16.0817 8.34959 15.2127 10.7937C14.9031 11.5333 14.5044 12.2169 14.0164 12.8445C15.5782 14.4307 17.1488 16.0095 18.7283 17.5808C18.9351 18.0067 18.8781 18.3892 18.5574 18.7283C18.2319 18.891 17.9064 18.891 17.5808 18.7283C16.0095 17.1489 14.4307 15.5782 12.8445 14.0164C10.3685 15.8616 7.68297 16.2279 4.78786 15.115C2.11496 13.8406 0.560577 11.7328 0.124771 8.79178C-0.10103 5.4428 1.19292 2.87933 4.00661 1.10135C4.96193 0.584863 5.97106 0.251205 7.03395 0.100371ZM7.86403 1.66287C10.4534 1.78814 12.3496 2.99256 13.5525 5.27615C14.6801 8.14651 14.1186 10.6286 11.8679 12.7224C9.83043 14.2598 7.63317 14.5365 5.27614 13.5525C2.59918 12.1133 1.43544 9.87532 1.78493 6.83865C2.21178 4.75183 3.3755 3.23001 5.27614 2.27322C6.10651 1.90393 6.96916 1.70047 7.86403 1.66287Z" fill="#343434"/>
</svg>
