<svg width="12" height="11" viewBox="0 0 12 11" fill="none" xmlns="http://www.w3.org/2000/svg">
<path d="M1.81687 0.332835C0.95602 0.542151 0.29416 1.32918 0.0583994 2.42878L0 2.70508V5.53782V8.37056L0.0583994 8.64686C0.296323 9.75762 0.962509 10.5419 1.8385 10.7456C2.09589 10.8042 8.95674 10.8042 9.21413 10.7456C10.0901 10.5419 10.7563 9.75762 10.9942 8.64686L11.0526 8.37056V5.53782V2.70508L10.9942 2.42878C10.7563 1.31802 10.0901 0.533778 9.21413 0.330045C8.96756 0.274227 2.05047 0.277018 1.81687 0.332835ZM9.34391 0.957992C9.96251 1.22592 10.3864 1.78967 10.5595 2.57949C10.5963 2.74973 10.5984 2.92556 10.5984 5.53782C10.5984 8.15008 10.5963 8.3259 10.5595 8.49615C10.3843 9.29155 9.94953 9.86926 9.33309 10.1176L9.17087 10.1846H5.52632H1.88176L1.71954 10.1176C1.20692 9.91112 0.821918 9.48133 0.607787 8.88129C0.445566 8.42917 0.454218 8.63569 0.454218 5.53782C0.454218 2.92556 0.456381 2.74973 0.493151 2.57949C0.668349 1.78967 1.11824 1.18963 1.70872 0.966364C1.79308 0.932874 1.89041 0.902174 1.92502 0.896592C1.96179 0.89101 3.60995 0.885428 5.5912 0.88822L9.1925 0.89101L9.34391 0.957992Z" fill="#343434"/>
<path d="M3.93012 3.11454C3.90157 3.12752 3.85485 3.16386 3.8263 3.195C3.77438 3.25211 3.77438 3.29363 3.7666 5.51541C3.764 6.75867 3.7666 7.80466 3.77438 7.83581C3.78217 7.86955 3.8211 7.92665 3.85744 7.9604C4.00798 8.10055 3.95348 8.12651 6.06364 6.88844C7.82341 5.85802 8.0025 5.749 8.03624 5.66595C8.08296 5.55174 8.0596 5.44533 7.96876 5.37006C7.82341 5.24807 4.10661 3.09118 4.04432 3.09378C4.01058 3.09378 3.95867 3.10416 3.93012 3.11454ZM5.7989 4.7082C6.55679 5.14944 7.1901 5.52579 7.20827 5.54136C7.23163 5.56472 6.91757 5.76198 5.79111 6.42125C4.99169 6.88844 4.33242 7.26999 4.32464 7.26999C4.31426 7.26999 4.30647 6.49911 4.30647 5.55694V3.84129L4.36617 3.87244C4.39731 3.89061 5.0436 4.26696 5.7989 4.7082Z" fill="#343434"/>
</svg>
